<svg width="24" height="24" viewBox="0 0 24 24" fill="none" xmlns="http://www.w3.org/2000/svg">
<rect width="24" height="24" fill="#E96744"/>
<path d="M12 6.75C10.7219 6.75 9.68587 7.78611 9.68587 9.06365C9.68587 10.3418 10.7222 11.3779 12 11.3779C13.2781 11.3779 14.3142 10.3418 14.3142 9.06365C14.3142 7.7858 13.2778 6.75 12 6.75ZM13.2531 9.27131L11.5089 10.2643C11.3428 10.3747 11.1213 10.2552 11.1213 10.0563V8.0707C11.1213 7.87149 11.3431 7.75265 11.5089 7.86273L13.2531 8.85568C13.402 8.95482 13.402 9.1728 13.2531 9.27131Z" fill="#FAFAFA"/>
<path d="M11.9997 15.941C11.9928 15.941 11.9866 15.941 11.9797 15.9416C10.2718 15.9454 8.6777 16.4336 7.32795 17.2767C7.30042 17.2942 7.27289 17.3118 7.24568 17.3293C7.21158 17.3509 7.17624 17.3696 7.1387 17.3818C7.08365 17.3993 7.02484 17.4087 6.96384 17.4087C6.96384 17.4087 6.96321 17.4087 6.9629 17.4087C6.8897 17.4087 6.81807 17.3887 6.75301 17.3562C6.70265 17.3302 6.65166 17.3043 6.60192 17.2783C6.44927 17.1989 6.2985 17.116 6.15023 17.0297C5.51054 16.6591 4.90933 16.2291 4.3541 15.7487C3.21705 14.7626 2.27206 13.5611 1.58389 12.2072C1.56856 12.1775 1.55355 12.1478 1.53885 12.1181C1.51445 12.0577 1.50131 11.9914 1.50006 11.922C1.49537 11.6114 1.76469 11.3562 2.07594 11.3562H3.94307C4.11261 11.3562 4.26558 11.4326 4.36724 11.553C4.39789 11.6064 4.4298 11.6596 4.46202 11.7121C4.92247 12.4649 5.4924 13.1436 6.14992 13.7259C6.3254 13.8813 6.50683 14.0295 6.69451 14.1706C8.17158 15.2821 10.0084 15.941 11.9997 15.941Z" fill="#FAFAFA"/>
<path opacity="0.8" d="M19.6458 15.7485C19.0843 16.2348 18.4759 16.6683 17.8283 17.0417C17.6766 17.1293 17.5231 17.2134 17.367 17.2941L17.3663 17.2947L17.2612 17.3479C17.188 17.3851 17.108 17.4082 17.026 17.4085C17.0254 17.4085 17.0248 17.4085 17.0244 17.4085H17.0223C16.9215 17.4079 16.8233 17.3741 16.7379 17.32L16.6366 17.2553H16.6359C15.2937 16.4256 13.7125 15.9452 12.0192 15.9415C12.0123 15.9408 12.0061 15.9408 11.9992 15.9408C10.0079 15.9408 8.17109 15.2819 6.69371 14.1701C8.28558 13.3573 10.0892 12.8988 11.9992 12.8988C13.9092 12.8988 15.7128 13.3573 17.3047 14.1701C17.4818 14.2608 17.6563 14.3556 17.828 14.4547C18.4759 14.8281 19.0843 15.2619 19.6458 15.7485Z" fill="#FAFAFA"/>
<path d="M22.5 11.9132C22.5 11.9858 22.4862 12.0546 22.4609 12.1181C22.4609 12.1184 22.4606 12.1184 22.4606 12.1184C22.4459 12.1478 22.4312 12.1775 22.4162 12.2066C22.4165 12.2069 22.4162 12.2069 22.4162 12.2069C21.7277 13.5611 20.7827 14.7626 19.6456 15.7484C19.0841 15.2621 18.4757 14.8283 17.8285 14.4549C17.6568 14.3557 17.4823 14.2607 17.3049 14.1703C17.4848 14.0349 17.6596 13.8926 17.8285 13.7437C18.4951 13.1579 19.0726 12.4727 19.5377 11.7118C19.5699 11.6593 19.6015 11.6068 19.6319 11.5536C19.6319 11.5533 19.6322 11.553 19.6325 11.5526C19.7345 11.4326 19.8868 11.3562 20.057 11.3562H21.9429C22.2507 11.3562 22.5 11.6055 22.5 11.9132Z" fill="#FAFAFA"/>
</svg>
