<svg width="31" height="21" viewBox="0 0 31 21" fill="none" xmlns="http://www.w3.org/2000/svg">
<path d="M1.9707 12.0684V17.7461C1.97076 18.0053 2.07409 18.2542 2.25879 18.4375C2.44355 18.6209 2.69476 18.7236 2.95605 18.7236H10.9922V20.6797H2.95605C2.17216 20.6797 1.41953 20.3704 0.865234 19.8203C0.311085 19.2702 5.86158e-05 18.5239 0 17.7461V12.0684H1.9707ZM30.543 17.7461C30.5429 18.524 30.231 19.2702 29.6768 19.8203C29.1225 20.3704 28.3707 20.6797 27.5869 20.6797H19.5508V18.7236H27.5869C27.8481 18.7236 28.0985 18.6207 28.2832 18.4375C28.4679 18.2542 28.5722 18.0053 28.5723 17.7461V12.0684H30.543V17.7461ZM10.9922 1.95605H2.95605C2.69476 1.95605 2.44355 2.05881 2.25879 2.24219C2.07414 2.42555 1.9707 2.67435 1.9707 2.93359V8.61133H0V2.93359C0 2.15574 0.311142 1.40948 0.865234 0.859375C1.41953 0.309243 2.17216 0 2.95605 0H10.9922V1.95605ZM27.5869 0C28.3708 4.47443e-06 29.1225 0.309247 29.6768 0.859375C30.231 1.4095 30.543 2.15561 30.543 2.93359V8.61133H28.5723V2.93359C28.5723 2.67426 28.468 2.42556 28.2832 2.24219C28.0985 2.05888 27.8482 1.95606 27.5869 1.95605H19.5508V0H27.5869Z" fill="#FAFAFA"/>
</svg>
