<svg width="29" height="30" viewBox="0 0 29 30" fill="none" xmlns="http://www.w3.org/2000/svg">
<path d="M15.6299 0.0043335C17.7266 0.0338178 19.1815 1.46207 19.2324 3.53168V4.18304C19.2784 5.28472 20.0947 5.74913 21.0947 5.24066C21.3375 5.11852 21.5687 4.97184 21.8115 4.84808C23.5044 3.98599 25.3945 4.47503 26.3994 6.06879C26.9643 6.96349 27.4969 7.88269 27.9961 8.81488C28.9155 10.5309 28.4108 12.3858 26.7754 13.4321C26.6114 13.5346 26.4472 13.6222 26.2832 13.7182C25.0599 14.4353 25.073 15.3777 26.3193 16.103C28.5524 17.4067 29.0413 19.2382 27.7441 21.4545C27.3189 22.1814 26.9118 22.922 26.4668 23.6342C25.3994 25.3516 23.4931 25.8548 21.7051 24.9047C21.5606 24.8281 21.4241 24.7417 21.2812 24.6586C20.0712 23.9874 19.2551 24.4535 19.2354 25.8256C19.1976 28.5065 17.8775 29.81 15.1797 29.8002C14.1436 29.8002 13.089 29.8577 12.0742 29.6948C10.3634 29.4209 9.30951 28.107 9.24219 26.3959C9.23071 26.1239 9.24218 25.8519 9.24219 25.5815C9.19621 24.5401 8.37168 24.0789 7.41602 24.5385C6.85449 24.8074 6.29784 25.1285 5.7002 25.2768C4.4227 25.6027 3.22049 25.2407 2.4668 24.2123C1.58844 23.0179 0.927056 21.6637 0.212891 20.3569C0.0306245 20.0619 0.0481979 19.6748 0.00878906 19.476C0.0384236 18.1284 0.534437 17.18 1.51465 16.4858C1.69194 16.3603 1.8822 16.2509 2.06934 16.1401C3.42237 15.3529 3.43552 14.4565 2.10547 13.684C1.91839 13.5749 1.72934 13.4644 1.54883 13.3422C0.110506 12.3644 -0.421233 10.5714 0.360352 9.03461C0.902653 7.96933 1.50521 6.93511 2.16602 5.93793C3.06916 4.56092 4.73809 4.08431 6.2832 4.68402C6.53568 4.78666 6.78065 4.90647 7.0166 5.04242C8.4813 5.86379 9.22112 5.44213 9.23535 3.77875C9.25353 1.39644 10.6656 0.0110017 13.084 0.0043335C13.9329 0.0043335 14.7809 -0.00544472 15.6299 0.0043335ZM15.625 2.27191C14.8319 2.25073 14.0382 2.27191 13.2451 2.27191C11.8725 2.27194 11.5404 2.59806 11.5322 3.92621C11.5106 7.08254 8.80533 8.65155 6.04199 7.11176C5.71851 6.93738 5.36997 6.7875 4.90527 6.56097C4.57698 6.83303 4.19938 7.04967 3.95801 7.37543C3.60015 7.84953 3.36045 8.40875 3.03711 8.91058C1.82529 10.7799 2.24852 11.165 3.75098 12.0483C5.92662 13.3259 5.90047 16.3847 3.79883 17.77C3.5494 17.9328 3.28008 18.0729 3.02734 18.2309C2.2704 18.7067 2.11389 19.2466 2.53418 20.0239C2.81661 20.5486 3.15809 21.046 3.43066 21.5756C4.28118 23.2231 4.74422 23.4931 6.45996 22.5073C8.6882 21.2263 11.354 22.7947 11.5264 25.35C11.546 25.6482 11.5259 25.9484 11.5391 26.2465C11.5655 27.0611 11.9782 27.5056 12.8008 27.5268C13.7578 27.5512 14.7165 27.5512 15.6719 27.5268C16.4929 27.504 16.9053 27.0591 16.9365 26.2377C16.9464 25.9396 16.9365 25.6397 16.9365 25.3432C17.0252 23.4153 18.6774 21.9077 20.6084 22.1245C21.3374 22.2076 22.0468 22.5782 22.7314 22.8911C23.5522 23.2657 24.0594 23.1772 24.5371 22.4018C25.0149 21.6261 25.4882 20.8175 25.9365 20.0092C26.3585 19.2482 26.1947 18.7051 25.4346 18.2162C25.1817 18.0533 24.9058 17.9277 24.6611 17.7582C23.5117 16.9581 22.9859 15.8665 23.1436 14.4682C23.2946 13.1221 24.111 12.289 25.2588 11.6713C26.2568 11.1336 26.3896 10.5748 25.833 9.60687C25.3995 8.85397 24.9744 8.09445 24.5195 7.35785C24.0647 6.62125 23.534 6.51034 22.7803 6.90472C22.4914 7.05626 22.2154 7.23042 21.9199 7.37543C21.44 7.6113 20.9115 7.73304 20.376 7.7309C19.8403 7.72867 19.3121 7.60267 18.834 7.36273C18.3559 7.1228 17.9404 6.77597 17.6211 6.34906C17.3018 5.9222 17.0872 5.42729 16.9941 4.90375C16.9439 4.47114 16.9255 4.03531 16.9385 3.60004C16.9089 2.73317 16.4917 2.29648 15.625 2.27191ZM14.249 9.94379C15.2363 9.94771 16.2005 10.2423 17.0195 10.7895C17.8385 11.3367 18.4754 12.1127 18.8506 13.019C19.2258 13.9254 19.3218 14.9216 19.127 15.8823C18.9321 16.8429 18.4552 17.7248 17.7559 18.4164C17.0564 19.1081 16.1659 19.5781 15.1973 19.768C14.2287 19.9579 13.2253 19.8594 12.3135 19.4838C11.4016 19.1082 10.6226 18.4725 10.0742 17.6577C9.52584 16.8428 9.23275 15.8847 9.23242 14.9047C9.23728 13.5875 9.76784 12.3257 10.708 11.3959C11.6482 10.4662 12.9218 9.94378 14.249 9.94379ZM14.2305 12.226C13.6971 12.2286 13.1766 12.388 12.7344 12.684C12.2922 12.98 11.9483 13.3993 11.7461 13.8891C11.5439 14.3789 11.492 14.9172 11.5977 15.436C11.7034 15.9549 11.9616 16.4318 12.3398 16.8051C12.718 17.1783 13.1994 17.4314 13.7227 17.5336C14.2461 17.6358 14.7888 17.5818 15.2812 17.3784C15.7736 17.1749 16.1944 16.8315 16.4902 16.3911C16.786 15.9506 16.9436 15.433 16.9434 14.9037C16.9447 14.5504 16.8753 14.2 16.7393 13.8735C16.6033 13.5471 16.4036 13.2506 16.1514 13.0014C15.8991 12.7522 15.5991 12.5547 15.2695 12.4213C14.9399 12.2879 14.5864 12.221 14.2305 12.2241V12.226Z" fill="#FAFAFA"/>
</svg>
