<svg width="9" height="9" viewBox="0 0 9 9" fill="none" xmlns="http://www.w3.org/2000/svg">
<circle cx="4.5" cy="4.5" r="4.2" stroke="#FAFAFA" stroke-width="0.6"/>
<path d="M4.19801 7.28577V3.35849H4.80142V7.28577H4.19801ZM4.50483 2.70395C4.38722 2.70395 4.28579 2.66389 4.20057 2.58378C4.11704 2.50366 4.07528 2.40736 4.07528 2.29486C4.07528 2.18236 4.11704 2.08605 4.20057 2.00594C4.28579 1.92582 4.38722 1.88577 4.50483 1.88577C4.62244 1.88577 4.72301 1.92582 4.80653 2.00594C4.89176 2.08605 4.93437 2.18236 4.93437 2.29486C4.93437 2.40736 4.89176 2.50366 4.80653 2.58378C4.72301 2.66389 4.62244 2.70395 4.50483 2.70395Z" fill="#FAFAFA"/>
</svg>
