<svg width="16" height="16" viewBox="0 0 16 16" fill="none" xmlns="http://www.w3.org/2000/svg">
<g clip-path="url(#clip0_229_1433)">
<path d="M10.8284 3.8619C12.3905 5.424 12.3905 7.95665 10.8284 9.51875M5.17155 9.51875C3.60945 7.95665 3.60945 5.424 5.17155 3.8619M3.28578 11.4044C0.682287 8.80091 0.682287 4.57981 3.28578 1.97632M12.7142 1.97632C15.3177 4.57981 15.3177 8.80091 12.7142 11.4044M7.99997 8.02368C8.73635 8.02368 9.33331 7.42673 9.33331 6.69035C9.33331 5.95397 8.73635 5.35702 7.99997 5.35702C7.26359 5.35702 6.66664 5.95397 6.66664 6.69035C6.66664 7.42673 7.26359 8.02368 7.99997 8.02368ZM7.99997 8.02368V14.0237" stroke="#FAFAFA" stroke-linecap="round" stroke-linejoin="round"/>
</g>
<defs>
<clipPath id="clip0_229_1433">
<rect width="16" height="16" fill="white"/>
</clipPath>
</defs>
</svg>
