<svg width="18" height="20" viewBox="0 0 18 20" fill="none" xmlns="http://www.w3.org/2000/svg">
<path d="M8.625 10.5752C13.3884 10.5752 17.25 14.4367 17.25 19.2002H16C16 15.1271 12.6981 11.8252 8.625 11.8252C4.55191 11.8252 1.25 15.1271 1.25 19.2002H0C0 14.4367 3.86155 10.5752 8.625 10.5752ZM8.62402 0C11.2749 0 13.4237 2.14893 13.4238 4.7998C13.4238 7.45077 11.275 9.59961 8.62402 9.59961C5.97336 9.59926 3.82422 7.45055 3.82422 4.7998C3.82432 2.14915 5.97342 0.000353524 8.62402 0ZM8.62402 1.25C6.66378 1.25035 5.07432 2.8395 5.07422 4.7998C5.07422 6.76019 6.66372 8.34926 8.62402 8.34961C10.5846 8.34961 12.1738 6.76041 12.1738 4.7998C12.1737 2.83928 10.5846 1.25 8.62402 1.25Z" fill="#FAFAFA"/>
</svg>
