<svg width="24" height="20" viewBox="0 0 24 20" fill="none" xmlns="http://www.w3.org/2000/svg">
<path d="M12.8459 0.393433C13.1171 0.230364 13.9407 -0.258455 14.7073 0.174683C15.1998 0.456562 15.4598 0.989385 15.4583 1.75183V18.6766C15.4377 18.9015 15.3638 19.1188 15.2434 19.3104C15.1231 19.5019 14.9592 19.6629 14.7649 19.7802C14.5239 19.9251 14.2468 20.0011 13.9651 19.9989C13.7776 19.9989 13.5919 19.9632 13.4172 19.8954C13.0423 19.7619 12.6799 19.5954 12.3352 19.3973L11.1233 18.6649C9.64549 17.78 8.13466 16.8726 6.6897 15.8573C5.55505 15.0604 4.47732 14.7364 3.19653 14.8016C2.21144 14.8538 1.26383 14.9006 0.63501 14.3124C0.00634037 13.7241 0.014891 12.8458 0.0148926 11.746V10.5057C0.0148926 9.57682 0.0242084 8.61664 0.0012207 7.67957C-0.0250519 6.60396 0.390681 6.01362 0.745361 5.70886C1.06231 5.43512 1.61923 5.14035 2.4729 5.2821C4.51549 5.62101 6.02447 4.72166 8.09497 3.31042C9.35934 2.44831 10.6878 1.66589 11.9719 0.908081L12.8459 0.393433ZM12.9768 2.58679C11.7191 3.32827 10.4187 4.09424 9.21021 4.91882C7.29566 6.22254 5.12486 7.70185 2.14966 7.20007C2.11131 7.19236 2.07158 7.18909 2.03247 7.19031C1.98183 7.32722 1.96134 7.47356 1.97192 7.61902C1.99655 8.58543 1.9915 9.56214 1.98657 10.5057V11.7343C1.9788 12.1061 1.9925 12.4782 2.02759 12.8485C2.38358 12.87 2.74093 12.87 3.09692 12.8485C3.24298 12.8371 3.38419 12.8378 3.52368 12.8378H3.52563C5.07886 12.8378 6.4583 13.2959 7.83423 14.2606C9.21017 15.2253 10.7048 16.1261 12.1448 16.993L13.3645 17.7303C13.4022 17.7547 13.443 17.776 13.4856 17.7987V2.28699L12.9768 2.58679ZM19.6633 2.453C24.7272 5.98464 24.7366 14.2394 19.6497 17.6259L18.7532 16.4852C20.7105 14.7692 21.9039 12.694 21.9006 10.0458C21.8973 7.42199 20.75 5.36182 18.7385 3.60828L19.6633 2.453ZM17.2083 4.60144C20.9353 6.77236 20.9931 12.6945 17.2659 15.5497L16.3967 14.3983C19.28 11.5382 19.001 8.16968 16.387 5.69421L17.2083 4.60144Z" fill="#FAFAFA"/>
</svg>
