<svg width="16" height="16" viewBox="0 0 16 16" fill="none" xmlns="http://www.w3.org/2000/svg">
<path d="M12.1455 2.06494L12.5028 3.06691C12.5609 3.22985 12.59 3.31132 12.6352 3.37985C12.6752 3.44059 12.7244 3.49365 12.7807 3.53684C12.8443 3.58556 12.9198 3.6169 13.0709 3.67957L14 4.06494L13.0709 4.45031C12.9198 4.51298 12.8443 4.54432 12.7807 4.59305C12.7244 4.63623 12.6752 4.6893 12.6352 4.75003C12.59 4.81856 12.5609 4.90003 12.5028 5.06297L12.1455 6.06494L11.7881 5.06297C11.73 4.90003 11.701 4.81856 11.6558 4.75003C11.6157 4.6893 11.5665 4.63623 11.5102 4.59305C11.4467 4.54432 11.3711 4.51298 11.22 4.45031L10.291 4.06494L11.22 3.67957C11.3711 3.6169 11.4467 3.58556 11.5102 3.53684C11.5665 3.49365 11.6157 3.44059 11.6558 3.37985C11.701 3.31132 11.73 3.22985 11.7881 3.06691L12.1455 2.06494Z" fill="#FAFAFA"/>
<path d="M7.56354 2L8.63555 5.00591C8.80989 5.49473 8.89705 5.73914 9.0326 5.94472C9.15274 6.12693 9.30035 6.28613 9.46931 6.41569C9.65994 6.56187 9.88657 6.65587 10.3398 6.84388L13.1271 8L10.3398 9.15612C9.88657 9.34413 9.65994 9.43813 9.46931 9.58431C9.30035 9.71387 9.15274 9.87307 9.0326 10.0553C8.89705 10.2609 8.80989 10.5053 8.63556 10.9941L7.56354 14L6.49152 10.9941C6.31719 10.5053 6.23002 10.2609 6.09447 10.0553C5.97434 9.87307 5.82672 9.71387 5.65777 9.58431C5.46714 9.43813 5.24051 9.34413 4.78725 9.15612L2 8L4.78725 6.84388C5.24051 6.65587 5.46714 6.56187 5.65777 6.41569C5.82672 6.28613 5.97434 6.12693 6.09447 5.94472C6.23002 5.73914 6.31719 5.49473 6.49152 5.00591L7.56354 2Z" fill="#FAFAFA"/>
</svg>
